<svg data-v-423bf9ae="" xmlns="http://www.w3.org/2000/svg" viewBox="0 0 583.2692403177157 163" class="iconAbove"><!----><!----><!----><g data-v-423bf9ae="" id="fc450300-3279-445a-aace-efe3dca40500" fill="#ffffff" transform="matrix(5.0547595415229125,0,0,5.0547595415229125,-7.278848276173846,90.46419576377413)"><path d="M6.85 6.83L6.85 6.83Q7.53 6.83 7.81 6.93L7.81 6.93L7.81 6.93Q8.08 7.03 8.23 7.17L8.23 7.17L7.59 9.16L7.59 9.16Q7.55 9.07 7.23 8.95L7.23 8.95L7.23 8.95Q6.92 8.83 6.57 8.83L6.57 8.83L6.57 8.83Q6.06 8.83 5.73 8.88L5.73 8.88L5.73 8.88Q5.39 8.93 5.19 9.09L5.19 9.09L5.19 12.05L7.01 12.05L7.01 14L1.44 14L1.44 12.05L2.69 12.05L2.69 8.95L1.44 8.95L1.44 7L4.31 7L4.73 7.66L4.73 7.66Q5.11 7.27 5.65 7.05L5.65 7.05L5.65 7.05Q6.19 6.83 6.85 6.83L6.85 6.83ZM12.82 6.83L12.82 6.83Q14.50 6.83 15.37 7.85L15.37 7.85L15.37 7.85Q16.23 8.88 16.23 10.82L16.23 10.82L16.23 10.82Q16.23 11.12 16.21 11.27L16.21 11.27L11.73 11.27L11.73 11.27Q11.80 11.73 12.05 11.96L12.05 11.96L12.05 11.96Q12.31 12.19 12.84 12.19L12.84 12.19L12.84 12.19Q13.31 12.19 13.57 12.07L13.57 12.07L13.57 12.07Q13.82 11.94 14.03 11.62L14.03 11.62L15.97 12.70L15.97 12.70Q15.58 13.34 14.72 13.75L14.72 13.75L14.72 13.75Q13.86 14.15 12.78 14.15L12.78 14.15L12.78 14.15Q11.07 14.15 10.19 13.15L10.19 13.15L10.19 13.15Q9.31 12.14 9.31 10.49L9.31 10.49L9.31 10.49Q9.31 9.42 9.72 8.60L9.72 8.60L9.72 8.60Q10.12 7.77 10.91 7.30L10.91 7.30L10.91 7.30Q11.70 6.83 12.82 6.83L12.82 6.83ZM11.76 9.81L14.04 9.81L14.04 9.81Q14.07 9.38 13.77 9.06L13.77 9.06L13.77 9.06Q13.47 8.75 12.92 8.75L12.92 8.75L12.92 8.75Q12.43 8.75 12.14 9.01L12.14 9.01L12.14 9.01Q11.86 9.27 11.76 9.81L11.76 9.81ZM25.19 12.98L23.74 14.35L22.88 13.50L22.88 13.50Q22.02 14.15 20.86 14.15L20.86 14.15L20.86 14.15Q19.24 14.15 18.44 13.59L18.44 13.59L18.44 13.59Q17.64 13.02 17.64 11.86L17.64 11.86L17.64 11.86Q17.64 10.68 18.46 10.13L18.46 10.13L18.46 10.13Q19.28 9.58 21.14 9.58L21.14 9.58L21.80 9.58L21.80 9.58Q21.78 9.21 21.62 9.00L21.62 9.00L21.62 9.00Q21.45 8.78 21 8.78L21 8.78L21 8.78Q20.36 8.78 19.98 8.94L19.98 8.94L19.98 8.94Q19.60 9.10 19.31 9.42L19.31 9.42L17.82 8.01L17.82 8.01Q18.47 7.36 19.29 7.10L19.29 7.10L19.29 7.10Q20.10 6.83 21.17 6.83L21.17 6.83L21.17 6.83Q22.55 6.83 23.43 7.40L23.43 7.40L23.43 7.40Q24.30 7.97 24.30 9.03L24.30 9.03L24.30 12.10L25.19 12.98ZM20.05 11.82L20.05 11.82Q20.05 11.94 20.09 12.03L20.09 12.03L20.09 12.03Q20.13 12.11 20.36 12.18L20.36 12.18L20.36 12.18Q20.59 12.25 21.10 12.25L21.10 12.25L21.10 12.25Q21.52 12.25 21.80 12.10L21.80 12.10L21.80 11.14L21.62 11.14L21.62 11.14Q20.05 11.14 20.05 11.82L20.05 11.82ZM33.24 12.60L33.24 12.60Q32.75 13.44 31.96 13.80L31.96 13.80L31.96 13.80Q31.16 14.15 29.92 14.15L29.92 14.15L29.92 14.15Q28.29 14.15 27.26 13.27L27.26 13.27L27.26 13.27Q26.22 12.38 26.22 10.49L26.22 10.49L26.22 10.49Q26.22 8.58 27.25 7.71L27.25 7.71L27.25 7.71Q28.28 6.83 29.92 6.83L29.92 6.83L29.92 6.83Q31.18 6.83 32.00 7.20L32.00 7.20L32.00 7.20Q32.82 7.57 33.31 8.48L33.31 8.48L31.11 9.72L31.11 9.72Q31.00 9.28 30.68 9.04L30.68 9.04L30.68 9.04Q30.37 8.79 29.88 8.79L29.88 8.79L29.88 8.79Q29.48 8.79 29.25 8.93L29.25 8.93L29.25 8.93Q29.02 9.07 28.91 9.44L28.91 9.44L28.91 9.44Q28.80 9.80 28.80 10.49L28.80 10.49L28.80 10.49Q28.80 11.48 29.05 11.84L29.05 11.84L29.05 11.84Q29.30 12.19 29.88 12.19L29.88 12.19L29.88 12.19Q30.34 12.19 30.60 12.00L30.60 12.00L30.60 12.00Q30.86 11.80 31.01 11.47L31.01 11.47L33.24 12.60ZM40.94 8.95L38.63 8.95L38.63 11.21L38.63 11.21Q38.63 11.83 38.79 12.05L38.79 12.05L38.79 12.05Q38.95 12.28 39.24 12.28L39.24 12.28L39.24 12.28Q39.63 12.28 40.20 12.17L40.20 12.17L40.20 12.17Q40.77 12.05 40.82 12.01L40.82 12.01L40.82 14L40.82 14Q40.60 14.03 40.03 14.09L40.03 14.09L40.03 14.09Q39.45 14.15 38.86 14.15L38.86 14.15L38.86 14.15Q37.56 14.15 36.85 13.78L36.85 13.78L36.85 13.78Q36.13 13.41 36.13 12.29L36.13 12.29L36.13 8.95L34.17 8.95L34.17 7L36.13 7L36.13 4.48L38.63 4.48L38.63 7L40.94 7L40.94 8.95ZM46.48 5.98L46.48 5.98Q45.75 5.98 45.24 5.47L45.24 5.47L45.24 5.47Q44.73 4.96 44.73 4.23L44.73 4.23L44.73 4.23Q44.73 3.49 45.24 2.98L45.24 2.98L45.24 2.98Q45.75 2.48 46.48 2.48L46.48 2.48L46.48 2.48Q47.22 2.48 47.73 2.98L47.73 2.98L47.73 2.98Q48.23 3.49 48.23 4.23L48.23 4.23L48.23 4.23Q48.23 4.96 47.73 5.47L47.73 5.47L47.73 5.47Q47.22 5.98 46.48 5.98L46.48 5.98ZM47.73 12.05L49.48 12.05L49.48 14L45.22 14L45.22 8.95L42.98 8.95L42.98 7L47.73 7L47.73 12.05ZM55.52 7L58.09 7L56.38 14L52.88 14L51.17 7L53.73 7L54.63 11.58L55.52 7ZM63.22 6.83L63.22 6.83Q64.90 6.83 65.77 7.85L65.77 7.85L65.77 7.85Q66.63 8.88 66.63 10.82L66.63 10.82L66.63 10.82Q66.63 11.12 66.61 11.27L66.61 11.27L62.13 11.27L62.13 11.27Q62.20 11.73 62.45 11.96L62.45 11.96L62.45 11.96Q62.71 12.19 63.24 12.19L63.24 12.19L63.24 12.19Q63.71 12.19 63.97 12.07L63.97 12.07L63.97 12.07Q64.22 11.94 64.43 11.62L64.43 11.62L66.37 12.70L66.37 12.70Q65.98 13.34 65.12 13.75L65.12 13.75L65.12 13.75Q64.26 14.15 63.18 14.15L63.18 14.15L63.18 14.15Q61.47 14.15 60.59 13.15L60.59 13.15L60.59 13.15Q59.71 12.14 59.71 10.49L59.71 10.49L59.71 10.49Q59.71 9.42 60.12 8.60L60.12 8.60L60.12 8.60Q60.52 7.77 61.31 7.30L61.31 7.30L61.31 7.30Q62.10 6.83 63.22 6.83L63.22 6.83ZM62.16 9.81L64.44 9.81L64.44 9.81Q64.47 9.38 64.17 9.06L64.17 9.06L64.17 9.06Q63.87 8.75 63.32 8.75L63.32 8.75L63.32 8.75Q62.83 8.75 62.54 9.01L62.54 9.01L62.54 9.01Q62.26 9.27 62.16 9.81L62.16 9.81ZM79.83 14.15L79.83 14.15Q78.48 14.15 77.55 13.76L77.55 13.76L77.55 13.76Q76.61 13.36 76.13 12.66L76.13 12.66L78.06 11.44L78.06 11.44Q78.29 11.83 78.79 12.05L78.79 12.05L78.79 12.05Q79.28 12.28 79.95 12.28L79.95 12.28L79.95 12.28Q80.42 12.28 80.65 12.16L80.65 12.16L80.65 12.16Q80.88 12.04 80.88 11.86L80.88 11.86L80.88 11.86Q80.88 11.68 80.58 11.54L80.58 11.54L80.58 11.54Q80.29 11.40 79.62 11.26L79.62 11.26L79.62 11.26Q78.34 10.98 77.50 10.43L77.50 10.43L77.50 10.43Q76.65 9.88 76.65 8.88L76.65 8.88L76.65 8.88Q76.65 8.26 77.09 7.80L77.09 7.80L77.09 7.80Q77.53 7.34 78.29 7.08L78.29 7.08L78.29 7.08Q79.04 6.83 79.95 6.83L79.95 6.83L79.95 6.83Q81.17 6.83 81.94 7.20L81.94 7.20L81.94 7.20Q82.71 7.56 83.17 8.27L83.17 8.27L81.48 9.42L81.48 9.42Q81.21 9.00 80.85 8.80L80.85 8.80L80.85 8.80Q80.49 8.60 79.95 8.60L79.95 8.60L79.95 8.60Q79.52 8.60 79.25 8.71L79.25 8.71L79.25 8.71Q78.97 8.82 78.97 8.96L78.97 8.96L78.97 8.96Q78.97 9.13 79.18 9.23L79.18 9.23L79.18 9.23Q79.38 9.32 79.80 9.42L79.80 9.42L79.80 9.42Q79.88 9.45 79.96 9.46L79.96 9.46L79.96 9.46Q80.04 9.48 80.11 9.49L80.11 9.49L80.11 9.49Q80.95 9.70 81.59 9.95L81.59 9.95L81.59 9.95Q82.22 10.19 82.73 10.68L82.73 10.68L82.73 10.68Q83.23 11.16 83.23 11.91L83.23 11.91L83.23 11.91Q83.24 13.01 82.31 13.58L82.31 13.58L82.31 13.58Q81.38 14.15 79.83 14.15L79.83 14.15ZM91.34 8.95L89.03 8.95L89.03 11.21L89.03 11.21Q89.03 11.83 89.19 12.05L89.19 12.05L89.19 12.05Q89.35 12.28 89.64 12.28L89.64 12.28L89.64 12.28Q90.03 12.28 90.60 12.17L90.60 12.17L90.60 12.17Q91.17 12.05 91.22 12.01L91.22 12.01L91.22 14L91.22 14Q91.00 14.03 90.43 14.09L90.43 14.09L90.43 14.09Q89.85 14.15 89.26 14.15L89.26 14.15L89.26 14.15Q87.96 14.15 87.25 13.78L87.25 13.78L87.25 13.78Q86.53 13.41 86.53 12.29L86.53 12.29L86.53 8.95L84.57 8.95L84.57 7L86.53 7L86.53 4.48L89.03 4.48L89.03 7L91.34 7L91.34 8.95ZM100.79 12.98L99.34 14.35L98.48 13.50L98.48 13.50Q97.62 14.15 96.46 14.15L96.46 14.15L96.46 14.15Q94.84 14.15 94.04 13.59L94.04 13.59L94.04 13.59Q93.24 13.02 93.24 11.86L93.24 11.86L93.24 11.86Q93.24 10.68 94.06 10.13L94.06 10.13L94.06 10.13Q94.88 9.58 96.74 9.58L96.74 9.58L97.40 9.58L97.40 9.58Q97.38 9.21 97.22 9.00L97.22 9.00L97.22 9.00Q97.05 8.78 96.60 8.78L96.60 8.78L96.60 8.78Q95.96 8.78 95.58 8.94L95.58 8.94L95.58 8.94Q95.20 9.10 94.91 9.42L94.91 9.42L93.42 8.01L93.42 8.01Q94.07 7.36 94.89 7.10L94.89 7.10L94.89 7.10Q95.70 6.83 96.77 6.83L96.77 6.83L96.77 6.83Q98.15 6.83 99.03 7.40L99.03 7.40L99.03 7.40Q99.90 7.97 99.90 9.03L99.90 9.03L99.90 12.10L100.79 12.98ZM95.65 11.82L95.65 11.82Q95.65 11.94 95.69 12.03L95.69 12.03L95.69 12.03Q95.73 12.11 95.96 12.18L95.96 12.18L95.96 12.18Q96.19 12.25 96.70 12.25L96.70 12.25L96.70 12.25Q97.12 12.25 97.40 12.10L97.40 12.10L97.40 11.14L97.22 11.14L97.22 11.14Q95.65 11.14 95.65 11.82L95.65 11.82ZM108.14 8.95L105.83 8.95L105.83 11.21L105.83 11.21Q105.83 11.83 105.99 12.05L105.99 12.05L105.99 12.05Q106.15 12.28 106.44 12.28L106.44 12.28L106.44 12.28Q106.83 12.28 107.40 12.17L107.40 12.17L107.40 12.17Q107.97 12.05 108.02 12.01L108.02 12.01L108.02 14L108.02 14Q107.80 14.03 107.23 14.09L107.23 14.09L107.23 14.09Q106.65 14.15 106.06 14.15L106.06 14.15L106.06 14.15Q104.76 14.15 104.05 13.78L104.05 13.78L104.05 13.78Q103.33 13.41 103.33 12.29L103.33 12.29L103.33 8.95L101.37 8.95L101.37 7L103.33 7L103.33 4.48L105.83 4.48L105.83 7L108.14 7L108.14 8.95ZM113.43 14.15L113.43 14.15Q112.08 14.15 111.15 13.76L111.15 13.76L111.15 13.76Q110.21 13.36 109.73 12.66L109.73 12.66L111.66 11.44L111.66 11.44Q111.89 11.83 112.39 12.05L112.39 12.05L112.39 12.05Q112.88 12.28 113.55 12.28L113.55 12.28L113.55 12.28Q114.02 12.28 114.25 12.16L114.25 12.16L114.25 12.16Q114.48 12.04 114.48 11.86L114.48 11.86L114.48 11.86Q114.48 11.68 114.18 11.54L114.18 11.54L114.18 11.54Q113.89 11.40 113.22 11.26L113.22 11.26L113.22 11.26Q111.94 10.98 111.10 10.43L111.10 10.43L111.10 10.43Q110.25 9.88 110.25 8.88L110.25 8.88L110.25 8.88Q110.25 8.26 110.69 7.80L110.69 7.80L110.69 7.80Q111.13 7.34 111.89 7.08L111.89 7.08L111.89 7.08Q112.64 6.83 113.55 6.83L113.55 6.83L113.55 6.83Q114.77 6.83 115.54 7.20L115.54 7.20L115.54 7.20Q116.31 7.56 116.77 8.27L116.77 8.27L115.08 9.42L115.08 9.42Q114.81 9.00 114.45 8.80L114.45 8.80L114.45 8.80Q114.09 8.60 113.55 8.60L113.55 8.60L113.55 8.60Q113.12 8.60 112.85 8.71L112.85 8.71L112.85 8.71Q112.57 8.82 112.57 8.96L112.57 8.96L112.57 8.96Q112.57 9.13 112.78 9.23L112.78 9.23L112.78 9.23Q112.98 9.32 113.40 9.42L113.40 9.42L113.40 9.42Q113.48 9.45 113.56 9.46L113.56 9.46L113.56 9.46Q113.64 9.48 113.71 9.49L113.71 9.49L113.71 9.49Q114.55 9.70 115.19 9.95L115.19 9.95L115.19 9.95Q115.82 10.19 116.33 10.68L116.33 10.68L116.33 10.68Q116.83 11.16 116.83 11.91L116.83 11.91L116.83 11.91Q116.84 13.01 115.91 13.58L115.91 13.58L115.91 13.58Q114.98 14.15 113.43 14.15L113.43 14.15Z"></path></g><!----><g data-v-423bf9ae="" id="a2cff895-c0a3-41d2-b7f2-4251616f251d" transform="matrix(2.8125,0,0,2.8125,247,0)" stroke="none" fill="#B4A186"><path d="M9.382 8.675h13.943v13.943L32 31.293V0H.707zM22.618 23.325H8.675V9.382L0 .707V32h31.293z"></path></g><!----></svg>